<svg width="157" height="30" viewBox="0 0 157 30" fill="none" xmlns="http://www.w3.org/2000/svg">
<path d="M0.256 23.92L5.568 10.72H7.856L2.544 23.92H0.256Z" fill="#F43F5E"/>
<path d="M17.8458 22.192C16.9924 22.192 16.2031 22.0373 15.4778 21.728C14.7631 21.4187 14.1338 20.9867 13.5898 20.432C13.0564 19.8773 12.6404 19.2267 12.3418 18.48C12.0431 17.7333 11.8938 16.9173 11.8938 16.032C11.8938 15.1467 12.0378 14.3307 12.3258 13.584C12.6244 12.8267 13.0404 12.176 13.5738 11.632C14.1178 11.0773 14.7524 10.6507 15.4778 10.352C16.2031 10.0427 16.9924 9.888 17.8458 9.888C18.6991 9.888 19.4618 10.032 20.1337 10.32C20.8164 10.608 21.3924 10.992 21.8618 11.472C22.3311 11.9413 22.6671 12.4587 22.8698 13.024L20.9178 13.936C20.6938 13.3387 20.3151 12.848 19.7818 12.464C19.2484 12.0693 18.6031 11.872 17.8458 11.872C17.0991 11.872 16.4378 12.048 15.8618 12.4C15.2964 12.752 14.8538 13.2373 14.5338 13.856C14.2244 14.4747 14.0698 15.2 14.0698 16.032C14.0698 16.864 14.2244 17.5947 14.5338 18.224C14.8538 18.8427 15.2964 19.328 15.8618 19.68C16.4378 20.032 17.0991 20.208 17.8458 20.208C18.6031 20.208 19.2484 20.016 19.7818 19.632C20.3151 19.2373 20.6938 18.7413 20.9178 18.144L22.8698 19.056C22.6671 19.6213 22.3311 20.144 21.8618 20.624C21.3924 21.0933 20.8164 21.472 20.1337 21.76C19.4618 22.048 18.6991 22.192 17.8458 22.192ZM33.5084 22.192C32.6337 22.192 31.8177 22.0373 31.0604 21.728C30.303 21.4187 29.6417 20.9867 29.0764 20.432C28.511 19.8773 28.0684 19.2267 27.7484 18.48C27.439 17.7227 27.2844 16.9067 27.2844 16.032C27.2844 15.1467 27.439 14.3307 27.7484 13.584C28.0577 12.8373 28.495 12.1867 29.0604 11.632C29.6257 11.0773 30.287 10.6507 31.0444 10.352C31.8017 10.0427 32.623 9.888 33.5084 9.888C34.3937 9.888 35.215 10.0427 35.9724 10.352C36.7297 10.6613 37.391 11.0933 37.9564 11.648C38.5217 12.192 38.959 12.8373 39.2684 13.584C39.5884 14.3307 39.7484 15.1467 39.7484 16.032C39.7484 16.9067 39.5884 17.7227 39.2684 18.48C38.9484 19.2267 38.5057 19.8773 37.9404 20.432C37.375 20.9867 36.7137 21.4187 35.9564 21.728C35.2097 22.0373 34.3937 22.192 33.5084 22.192ZM33.5084 20.208C34.095 20.208 34.6337 20.1067 35.1244 19.904C35.615 19.6907 36.0417 19.3973 36.4044 19.024C36.7777 18.6507 37.0604 18.208 37.2524 17.696C37.455 17.184 37.5564 16.6293 37.5564 16.032C37.5564 15.4347 37.455 14.8853 37.2524 14.384C37.0604 13.872 36.7777 13.4293 36.4044 13.056C36.0417 12.672 35.615 12.3787 35.1244 12.176C34.6337 11.9733 34.095 11.872 33.5084 11.872C32.9324 11.872 32.399 11.9733 31.9084 12.176C31.4177 12.3787 30.9857 12.672 30.6124 13.056C30.2497 13.4293 29.967 13.872 29.7644 14.384C29.5617 14.8853 29.4604 15.4347 29.4604 16.032C29.4604 16.6293 29.5617 17.184 29.7644 17.696C29.967 18.208 30.2497 18.6507 30.6124 19.024C30.9857 19.3973 31.4177 19.6907 31.9084 19.904C32.399 20.1067 32.9324 20.208 33.5084 20.208ZM44.6833 22V10.08H48.5713C49.8299 10.08 50.9233 10.336 51.8513 10.848C52.7899 11.3493 53.5153 12.048 54.0273 12.944C54.5393 13.8293 54.7953 14.8587 54.7953 16.032C54.7953 17.1947 54.5393 18.2293 54.0273 19.136C53.5153 20.032 52.7899 20.736 51.8513 21.248C50.9233 21.7493 49.8299 22 48.5713 22H44.6833ZM46.8593 20.08H48.6193C49.4299 20.08 50.1286 19.9147 50.7153 19.584C51.3126 19.2427 51.7766 18.7733 52.1073 18.176C52.4379 17.568 52.6033 16.8533 52.6033 16.032C52.6033 15.2 52.4379 14.4853 52.1073 13.888C51.7766 13.2907 51.3126 12.8267 50.7153 12.496C50.1286 12.1653 49.4299 12 48.6193 12H46.8593V20.08ZM59.527 22V10.08H67.447V12H61.703V15.056H67.127V16.976H61.703V20.08H67.447V22H59.527ZM77.6426 22.192C76.7893 22.192 76 22.0373 75.2746 21.728C74.56 21.4187 73.9306 20.9867 73.3866 20.432C72.8533 19.8773 72.4373 19.2267 72.1386 18.48C71.84 17.7333 71.6906 16.9173 71.6906 16.032C71.6906 15.1467 71.8346 14.3307 72.1226 13.584C72.4213 12.8267 72.8373 12.176 73.3706 11.632C73.9146 11.0773 74.5493 10.6507 75.2746 10.352C76 10.0427 76.7893 9.888 77.6426 9.888C78.496 9.888 79.2586 10.032 79.9306 10.32C80.6133 10.608 81.1893 10.992 81.6586 11.472C82.128 11.9413 82.464 12.4587 82.6666 13.024L80.7146 13.936C80.4906 13.3387 80.112 12.848 79.5786 12.464C79.0453 12.0693 78.4 11.872 77.6426 11.872C76.896 11.872 76.2346 12.048 75.6586 12.4C75.0933 12.752 74.6506 13.2373 74.3306 13.856C74.0213 14.4747 73.8666 15.2 73.8666 16.032C73.8666 16.864 74.0213 17.5947 74.3306 18.224C74.6506 18.8427 75.0933 19.328 75.6586 19.68C76.2346 20.032 76.896 20.208 77.6426 20.208C78.4 20.208 79.0453 20.016 79.5786 19.632C80.112 19.2373 80.4906 18.7413 80.7146 18.144L82.6666 19.056C82.464 19.6213 82.128 20.144 81.6586 20.624C81.1893 21.0933 80.6133 21.472 79.9306 21.76C79.2586 22.048 78.496 22.192 77.6426 22.192ZM86.4573 22L90.5693 10.08H93.3853L97.4973 22H95.1293L94.2812 19.44H89.6733L88.8093 22H86.4573ZM90.2973 17.52H93.6573L91.6733 11.584H92.2813L90.2973 17.52ZM101.824 22V10.08H103.904L108.368 16.144H107.376L111.744 10.08H113.824V22H111.632V12.56L112.48 12.768L107.952 18.8H107.696L103.28 12.768L104 12.56V22H101.824ZM119.105 22V10.08H123.553C124.364 10.08 125.078 10.2293 125.697 10.528C126.326 10.816 126.817 11.2427 127.169 11.808C127.521 12.3627 127.697 13.04 127.697 13.84C127.697 14.6293 127.516 15.3067 127.153 15.872C126.801 16.4267 126.316 16.8533 125.697 17.152C125.078 17.4507 124.364 17.6 123.553 17.6H121.281V22H119.105ZM121.281 15.68H123.585C123.98 15.68 124.321 15.6053 124.609 15.456C124.897 15.296 125.121 15.0773 125.281 14.8C125.441 14.5227 125.521 14.2027 125.521 13.84C125.521 13.4667 125.441 13.1467 125.281 12.88C125.121 12.6027 124.897 12.3893 124.609 12.24C124.321 12.08 123.98 12 123.585 12H121.281V15.68ZM137.072 22.192C136.155 22.192 135.339 22 134.624 21.616C133.92 21.232 133.365 20.704 132.96 20.032C132.555 19.36 132.352 18.5973 132.352 17.744V10.08H134.528V17.632C134.528 18.1227 134.635 18.5653 134.848 18.96C135.072 19.3547 135.376 19.664 135.76 19.888C136.144 20.1013 136.581 20.208 137.072 20.208C137.573 20.208 138.011 20.1013 138.384 19.888C138.768 19.664 139.067 19.3547 139.28 18.96C139.504 18.5653 139.616 18.1227 139.616 17.632V10.08H141.792V17.744C141.792 18.5973 141.589 19.36 141.184 20.032C140.779 20.704 140.219 21.232 139.504 21.616C138.8 22 137.989 22.192 137.072 22.192ZM151.221 22.192C150.463 22.192 149.759 22.0533 149.109 21.776C148.469 21.4987 147.914 21.1147 147.445 20.624C146.986 20.1227 146.65 19.5413 146.437 18.88L148.245 18.096C148.533 18.7787 148.949 19.3173 149.493 19.712C150.037 20.096 150.65 20.288 151.333 20.288C151.717 20.288 152.047 20.2293 152.325 20.112C152.613 19.984 152.831 19.8133 152.981 19.6C153.141 19.3867 153.221 19.1307 153.221 18.832C153.221 18.48 153.114 18.192 152.901 17.968C152.698 17.7333 152.389 17.552 151.973 17.424L149.685 16.688C148.757 16.4 148.058 15.968 147.589 15.392C147.119 14.816 146.885 14.1387 146.885 13.36C146.885 12.6773 147.05 12.0747 147.381 11.552C147.722 11.0293 148.191 10.624 148.789 10.336C149.397 10.0373 150.09 9.888 150.869 9.888C151.583 9.888 152.239 10.016 152.837 10.272C153.434 10.5173 153.946 10.864 154.373 11.312C154.81 11.7493 155.135 12.2667 155.349 12.864L153.557 13.664C153.322 13.0667 152.97 12.608 152.501 12.288C152.031 11.9573 151.487 11.792 150.869 11.792C150.506 11.792 150.186 11.856 149.909 11.984C149.631 12.1013 149.413 12.272 149.253 12.496C149.103 12.7093 149.029 12.9653 149.029 13.264C149.029 13.5947 149.135 13.888 149.349 14.144C149.562 14.3893 149.887 14.5813 150.325 14.72L152.517 15.408C153.466 15.7173 154.175 16.144 154.645 16.688C155.125 17.232 155.365 17.904 155.365 18.704C155.365 19.3867 155.189 19.9893 154.837 20.512C154.485 21.0347 153.999 21.4453 153.381 21.744C152.762 22.0427 152.042 22.192 151.221 22.192Z" fill="#18181B"/>
</svg>
